<svg width="26" height="26" viewBox="0 0 26 26" fill="none" xmlns="http://www.w3.org/2000/svg">
<mask id="mask0_726_12095" style="mask-type:alpha" maskUnits="userSpaceOnUse" x="0" y="0" width="26" height="26">
<rect x="25.7703" y="0.5" width="25" height="25" transform="rotate(90 25.7703 0.5)" fill="#D9D9D9"/>
</mask>
<g mask="url(#mask0_726_12095)">
<path d="M9.78084 13.0001C9.78084 12.8612 9.80689 12.7268 9.85897 12.597C9.91105 12.4664 9.9805 12.3577 10.0673 12.2709L14.859 7.47925C15.0499 7.28828 15.293 7.19279 15.5881 7.19279C15.8833 7.19279 16.1263 7.28828 16.3173 7.47925C16.5083 7.67022 16.6038 7.91328 16.6038 8.20842C16.6038 8.50356 16.5083 8.74661 16.3173 8.93759L12.2548 13.0001L16.3173 17.0626C16.5083 17.2536 16.6038 17.4966 16.6038 17.7918C16.6038 18.0869 16.5083 18.3299 16.3173 18.5209C16.1263 18.7119 15.8833 18.8074 15.5881 18.8074C15.293 18.8074 15.0499 18.7119 14.859 18.5209L10.0673 13.7293C9.96314 13.6251 9.88953 13.5122 9.84647 13.3907C9.80272 13.2692 9.78084 13.139 9.78084 13.0001Z" fill="black"/>
</g>
</svg>
